<svg xmlns="http://www.w3.org/2000/svg" xmlns:xlink="http://www.w3.org/1999/xlink" version="1.1" id="Layer_1" x="0px" y="0px" width="100%" viewBox="0 0 318 159" enable-background="new 0 0 318 159" xml:space="preserve">
<path fill="#D4EFFC" opacity="1.000000" stroke="none" d=" M199.000000,160.000000   C132.666672,160.000000 66.833351,160.000000 1.000018,160.000000   C1.000012,107.000015 1.000012,54.000027 1.000006,1.000032   C106.999969,1.000021 212.999939,1.000021 318.999939,1.000011   C318.999939,53.999966 318.999939,106.999931 318.999969,159.999939   C279.166656,160.000000 239.333328,160.000000 199.000000,160.000000  M188.896439,83.740341   C190.307953,80.076180 194.461960,76.077003 187.585312,73.411621   C187.201782,73.262970 187.298981,72.129547 186.917419,71.663109   C186.274384,70.877045 185.426758,70.258339 184.665176,69.569244   C184.233383,70.698578 183.344727,71.873398 183.451813,72.949089   C183.839310,76.841370 184.561340,80.700333 184.391388,84.647530   C183.321075,84.808617 182.250763,84.969704 181.133316,85.137878   C181.704819,88.288811 182.217453,91.115166 181.756638,94.059364   C179.187607,94.013222 176.618576,93.967072 174.109970,93.183113   C176.340347,86.830864 178.570724,80.478607 180.994553,73.575378   C176.018936,73.055962 171.822754,72.617920 167.298447,72.145615   C165.175140,77.522217 163.132797,82.693802 160.351242,87.594048   C156.865143,85.396027 153.312881,83.317963 152.810898,78.541336   C152.709946,77.580650 151.626770,76.723198 151.351639,75.243507   C150.223358,72.492462 149.095093,69.741417 147.730240,66.348450   C145.196686,63.656834 143.062241,61.135986 148.833817,59.669231   C149.785950,59.427261 150.676437,57.890888 151.082413,56.767361   C151.968750,54.314301 152.525116,51.742012 153.738495,48.853146   C153.947464,48.080120 154.543320,46.790470 154.306305,46.612972   C151.550247,44.549061 148.836807,42.306904 145.769882,40.815754   C143.046310,39.491535 141.860413,41.805264 140.836990,44.025574   C140.479034,44.802158 139.365311,45.342537 138.484680,45.746719   C134.583115,47.537464 132.577835,50.407639 132.969009,54.802361   C133.297043,58.487610 131.503326,60.649857 128.117996,61.974823   C119.911781,65.186592 117.433701,73.389954 121.812172,81.704277   C112.046959,82.552399 111.464981,83.050919 110.269897,91.365753   C108.191345,92.975502 106.112793,94.585243 103.288719,96.024757   C102.925247,95.102104 102.203568,94.157295 102.259033,93.260551   C102.528870,88.897667 103.006691,84.547646 103.420357,80.090965   C98.867981,83.275246 96.297386,89.302696 98.191170,96.478867   C101.141968,107.660408 98.624207,118.631706 97.444313,129.850449   C88.704819,129.967422 88.598183,129.983948 88.816689,138.997437   C88.882225,141.700470 89.625229,144.387070 89.203926,147.270905   C87.402260,147.287567 85.587654,147.172607 83.801628,147.348297   C80.075371,147.714859 79.614357,149.243332 82.968910,152.992783   C123.798180,153.000748 164.627457,153.022110 205.456726,153.007431   C215.949875,153.003647 226.443008,152.886230 237.638199,152.777252   C239.326157,149.048584 237.997192,147.306503 234.031921,147.305466   C228.251724,147.303940 222.471542,147.305069 216.198837,147.305069   C216.198837,140.120300 216.282547,133.351318 216.144531,126.586845   C216.106308,124.713463 215.409103,122.853539 214.843872,120.328148   C213.572739,119.922386 212.301620,119.516624 210.847412,118.685448   C210.694519,118.406876 210.478470,118.191742 210.075729,117.105179   C210.064957,99.965088 210.097244,82.824837 210.031189,65.684959   C209.966309,48.847450 210.292358,31.994181 209.843597,15.167665   C209.220810,15.182926 208.598038,15.198187 207.975250,15.213448   C207.975250,49.760197 207.975250,84.306946 207.975250,118.224205   C205.919083,119.348381 204.440414,120.156815 202.249130,121.322578   C201.932068,123.052269 201.368683,124.778091 201.341461,126.512337   C201.234955,133.292221 201.297943,140.074783 201.297943,147.022858   C191.174301,147.022858 181.564117,147.022858 171.963089,146.082687   C171.963089,130.559204 171.963089,115.035721 171.963089,99.401985   C173.409698,99.326332 174.229752,99.247696 175.049957,99.246208   C181.696442,99.234154 188.347565,99.362160 194.985352,99.120560   C196.202072,99.076279 197.364777,97.547661 198.552414,96.704216   C197.355255,95.841888 196.268066,94.625343 194.931961,94.210487   C193.400116,93.734840 191.647461,93.970329 190.187195,93.170418   C190.593918,90.547043 191.000626,87.923668 191.432846,85.135841   C190.491623,84.945030 189.566971,84.757568 188.896439,83.740341  M187.273605,37.988461   C182.470779,39.548573 180.134186,43.554188 176.802704,47.461464   C186.391235,47.461464 194.981750,47.461464 203.572266,47.461464   C203.780869,47.036537 203.989471,46.611610 204.198090,46.186684   C200.444229,43.118729 196.690369,40.050777 193.021622,36.165615   C192.389191,34.825039 191.253326,33.500286 191.210602,32.141174   C191.014618,25.906116 191.124344,19.661448 191.124344,14.167360   C191.073761,14.269164 190.270844,15.205779 190.159302,16.218536   C189.361282,23.464136 188.704041,30.725243 187.273605,37.988461  M92.660187,103.955414   C94.550232,105.348801 96.440285,106.742188 99.081139,108.689087   C98.481720,105.773849 98.260712,103.988029 97.739738,102.294487   C95.962746,96.517952 92.613594,91.812119 87.429642,88.673332   C86.184753,87.919571 84.274796,87.967209 82.740814,88.171837   C82.290024,88.231972 81.494484,90.587082 81.874321,91.043266   C82.857094,92.223572 84.402199,92.938843 85.734528,93.822067   C85.984642,93.987862 86.289215,94.071510 86.563805,94.204208   C85.031013,97.784698 86.344826,99.110039 90.585167,99.148285   C91.191299,100.819008 91.673241,102.147400 92.660187,103.955414  z"/>
<path fill="#262222" opacity="1.000000" stroke="none" d=" M82.072845,152.734528   C79.614357,149.243332 80.075371,147.714859 83.801628,147.348297   C85.587654,147.172607 87.402260,147.287567 90.089386,147.257996   C96.955276,146.970947 102.935722,146.696793 109.107864,146.717804   C114.544167,147.027527 119.788765,147.042130 125.343185,147.171463   C126.082802,147.220383 126.512589,147.154572 127.378586,147.182007   C129.885483,147.197998 131.956161,147.120728 134.263153,147.117737   C134.499435,147.192017 134.972351,147.044556 135.432480,147.157074   C140.480347,147.250824 145.068069,147.232040 150.002838,147.149475   C151.289322,147.031006 152.228775,146.976303 153.472137,147.012115   C154.210754,146.762192 154.645462,146.421768 155.472382,145.944473   C156.113297,145.685684 156.361969,145.563782 156.779770,145.523956   C156.948914,145.606018 156.980209,145.980698 157.016022,146.265320   C157.379654,146.696091 157.707474,146.842255 158.273132,146.966385   C158.510971,146.944366 158.985596,146.998550 159.177277,147.086426   C159.368958,147.174316 159.787109,147.119446 159.838013,147.103577   C159.888931,147.087692 159.901413,147.193619 159.974167,147.569519   C162.395065,147.785019 164.743225,147.624619 167.318329,147.360443   C167.545288,147.256668 167.959473,146.978134 168.358948,146.964203   C169.823578,146.974472 170.888763,146.998672 171.953934,147.022858   C181.564117,147.022858 191.174301,147.022858 201.297943,147.022858   C201.297943,140.074783 201.234955,133.292221 201.341461,126.512337   C201.368683,124.778091 201.932068,123.052269 203.019409,121.209641   C207.531189,121.060280 211.272705,121.023857 215.014221,120.987442   C215.409103,122.853539 216.106308,124.713463 216.144531,126.586845   C216.282547,133.351318 216.198837,140.120300 216.198837,147.305069   C222.471542,147.305069 228.251724,147.303940 234.031921,147.305466   C237.997192,147.306503 239.326157,149.048584 236.968140,152.542419   C235.478409,152.202271 234.658737,152.005051 233.839020,152.004807   C184.523529,151.989868 135.208038,151.985580 85.892578,152.022018   C84.619156,152.022964 83.346085,152.486649 82.072845,152.734528  z"/>
<path fill="#4F5052" opacity="1.000000" stroke="none" d=" M171.958511,146.552780   C170.888763,146.998672 169.823578,146.974472 168.342361,146.497223   C167.908539,135.481049 167.890762,124.917915 167.914581,113.872231   C167.980347,111.223511 168.024628,109.057350 168.025085,106.891174   C168.026611,99.570000 168.020660,99.570000 160.993103,99.981781   C161.014633,99.978065 161.025833,100.020325 160.841888,99.770096   C160.069290,99.371719 159.480621,99.223572 158.432266,99.095467   C152.420624,98.634720 146.868668,98.153931 141.411774,97.439865   C141.987686,96.469589 142.468521,95.732574 143.290131,94.795303   C145.482300,94.378136 147.333679,94.161217 149.640625,93.984085   C158.080627,93.989555 166.065094,93.955246 174.049545,93.920929   C176.618576,93.967072 179.187607,94.013222 182.624329,94.086143   C185.658249,94.040909 187.824493,93.968895 189.990723,93.896881   C191.647461,93.970329 193.400116,93.734840 194.931961,94.210487   C196.268066,94.625343 197.355255,95.841888 198.552414,96.704216   C197.364777,97.547661 196.202072,99.076279 194.985352,99.120560   C188.347565,99.362160 181.696442,99.234154 175.049957,99.246208   C174.229752,99.247696 173.409698,99.326332 171.963089,99.401985   C171.963089,115.035721 171.963089,130.559204 171.958511,146.552780  z"/>
<path fill="#262222" opacity="1.000000" stroke="none" d=" M122.241127,80.982666   C117.433701,73.389954 119.911781,65.186592 128.117996,61.974823   C131.503326,60.649857 133.297043,58.487610 132.969009,54.802361   C132.577835,50.407639 134.583115,47.537464 138.484680,45.746719   C139.365311,45.342537 140.479034,44.802158 140.836990,44.025574   C141.860413,41.805264 143.046310,39.491535 145.769882,40.815754   C148.836807,42.306904 151.550247,44.549061 154.306305,46.612972   C154.543320,46.790470 153.947464,48.080120 153.155884,48.836868   C150.979248,49.070339 149.327484,49.136299 147.805237,49.614586   C145.723572,50.268642 143.740402,51.236244 141.129791,52.310196   C142.483719,56.618973 142.889709,61.675732 135.965363,63.956497   C135.408157,64.220688 135.124557,64.439819 134.519897,64.799797   C132.478699,67.838699 130.574127,70.645943 129.089874,73.660156   C127.581413,76.723541 126.487366,79.990982 124.926224,83.042694   C123.840775,82.271774 123.040955,81.627220 122.241127,80.982666  z"/>
<path fill="#F37621" opacity="1.000000" stroke="none" d=" M108.916161,146.422653   C102.935722,146.696793 96.955276,146.970947 90.516350,147.163147   C89.625229,144.387070 88.882225,141.700470 88.816689,138.997437   C88.598183,129.983948 88.704819,129.967422 98.209511,129.842499   C99.606133,129.792099 100.237556,129.749664 101.317726,129.784424   C110.407722,129.363480 111.056519,130.846786 110.709999,138.960709   C110.602875,141.468994 109.540932,143.936478 108.916161,146.422653  z"/>
<path fill="#A7A9AC" opacity="1.000000" stroke="none" d=" M174.079758,93.552017   C166.065094,93.955246 158.080627,93.989555 149.675537,93.774811   C149.254883,93.525757 149.426773,93.137009 149.838745,93.089249   C152.195450,93.011925 154.240540,93.346725 156.055634,92.846664   C157.750610,92.379707 159.201370,91.026237 160.823212,89.849976   C160.954697,89.046440 161.022583,88.455917 161.090454,87.865387   C163.132797,82.693802 165.175140,77.522217 167.298447,72.145615   C171.822754,72.617920 176.018936,73.055962 180.994553,73.575378   C178.570724,80.478607 176.340347,86.830864 174.079758,93.552017  z"/>
<path fill="#6D777D" opacity="1.000000" stroke="none" d=" M214.929047,120.657791   C211.272705,121.023857 207.531189,121.060280 203.375702,121.030975   C204.440414,120.156815 205.919083,119.348381 207.975250,118.224205   C207.975250,84.306946 207.975250,49.760197 207.975250,15.213448   C208.598038,15.198187 209.220810,15.182926 209.843597,15.167665   C210.292358,31.994181 209.966309,48.847450 210.031189,65.684959   C210.097244,82.824837 210.064957,99.965088 210.135620,117.846344   C210.473831,118.761955 210.752167,118.936409 211.030487,119.110863   C212.301620,119.516624 213.572739,119.922386 214.929047,120.657791  z"/>
<path fill="#CFD2D4" opacity="1.000000" stroke="none" d=" M192.936523,36.982826   C196.690369,40.050777 200.444229,43.118729 204.198090,46.186684   C203.989471,46.611610 203.780869,47.036537 203.572266,47.461464   C194.981750,47.461464 186.391235,47.461464 176.802704,47.461464   C180.134186,43.554188 182.470779,39.548573 188.009399,38.020893   C190.142303,37.696491 191.539413,37.339657 192.936523,36.982826  z"/>
<path fill="#000000" opacity="1.000000" stroke="none" d=" M82.520874,152.863647   C83.346085,152.486649 84.619156,152.022964 85.892578,152.022018   C135.208038,151.985580 184.523529,151.989868 233.839020,152.004807   C234.658737,152.005051 235.478409,152.202271 236.617126,152.564285   C226.443008,152.886230 215.949875,153.003647 205.456726,153.007431   C164.627457,153.022110 123.798180,153.000748 82.520874,152.863647  z"/>
<path fill="#F9A282" opacity="1.000000" stroke="none" d=" M136.238998,63.911442   C142.889709,61.675732 142.483719,56.618973 141.129791,52.310196   C143.740402,51.236244 145.723572,50.268642 147.805237,49.614586   C149.327484,49.136299 150.979248,49.070339 152.894791,49.019516   C152.525116,51.742012 151.968750,54.314301 151.082413,56.767361   C150.676437,57.890888 149.785950,59.427261 148.833817,59.669231   C143.062241,61.135986 145.196686,63.656834 147.456436,66.712090   C144.843765,66.996071 142.504913,66.916412 139.844299,66.764008   C138.428040,65.764648 137.333511,64.838043 136.238998,63.911442  z"/>
<path fill="#4588A8" opacity="1.000000" stroke="none" d=" M92.407684,103.715607   C91.673241,102.147400 91.191299,100.819008 90.585167,99.148285   C86.344826,99.110039 85.031013,97.784698 86.566223,94.198639   C86.289215,94.071510 85.984642,93.987862 85.734528,93.822067   C84.402199,92.938843 82.857094,92.223572 81.874321,91.043266   C81.494484,90.587082 82.290024,88.231972 82.740814,88.171837   C84.274796,87.967209 86.184753,87.919571 87.429642,88.673332   C92.613594,91.812119 95.962746,96.517952 97.739738,102.294487   C98.260712,103.988029 98.481720,105.773849 99.081139,108.689087   C96.440285,106.742188 94.550232,105.348801 92.407684,103.715607  z"/>
<path fill="#5D9EAC" opacity="1.000000" stroke="none" d=" M100.868980,129.707214   C100.237556,129.749664 99.606133,129.792099 98.672134,129.763596   C98.624207,118.631706 101.141968,107.660408 98.191170,96.478867   C96.297386,89.302696 98.867981,83.275246 103.420357,80.090965   C103.006691,84.547646 102.528870,88.897667 102.259033,93.260551   C102.203568,94.157295 102.925247,95.102104 103.646370,96.470367   C103.724083,98.318230 103.444145,99.720490 102.971947,101.452881   C102.522102,103.549065 102.264511,105.315109 101.917023,107.483994   C101.507736,115.160286 101.188362,122.433746 100.868980,129.707214  z"/>
<path fill="#4A4947" opacity="1.000000" stroke="none" d=" M122.026649,81.343475   C123.040955,81.627220 123.840775,82.271774 124.850540,83.384087   C123.388786,86.878387 121.717079,89.904922 119.653717,92.906090   C116.463089,92.280975 113.664101,91.681229 110.865120,91.081482   C111.464981,83.050919 112.046959,82.552399 122.026649,81.343475  z"/>
<path fill="#F27A29" opacity="1.000000" stroke="none" d=" M160.720856,87.729721   C161.022583,88.455917 160.954697,89.046440 160.513336,89.674599   C156.764709,89.485237 153.389572,89.258255 149.764740,89.027008   C149.181854,89.012642 148.849045,89.019722 148.333786,88.638710   C148.431885,85.153275 148.712769,82.073105 149.122925,78.697128   C149.833618,77.540260 150.415039,76.679207 150.996445,75.818146   C151.626770,76.723198 152.709946,77.580650 152.810898,78.541336   C153.312881,83.317963 156.865143,85.396027 160.720856,87.729721  z"/>
<path fill="#FBEBE4" opacity="1.000000" stroke="none" d=" M151.174042,75.530823   C150.415039,76.679207 149.833618,77.540260 148.788147,78.707108   C147.089935,78.712387 145.855774,78.411880 144.466064,77.731827   C142.929016,73.847107 141.547531,70.341934 140.166046,66.836754   C142.504913,66.916412 144.843765,66.996071 147.574722,67.033051   C149.095093,69.741417 150.223358,72.492462 151.174042,75.530823  z"/>
<path fill="#F27A29" opacity="1.000000" stroke="none" d=" M190.088959,93.533646   C187.824493,93.968895 185.658249,94.040909 183.111053,94.027222   C182.217453,91.115166 181.704819,88.288811 181.133316,85.137878   C182.250763,84.969704 183.321075,84.808617 185.013641,84.699379   C186.638031,84.690849 187.640182,84.630478 188.642319,84.570107   C189.566971,84.757568 190.491623,84.945030 191.432846,85.135841   C191.000626,87.923668 190.593918,90.547043 190.088959,93.533646  z"/>
<path fill="#74C3CB" opacity="1.000000" stroke="none" d=" M188.769379,84.155228   C187.640182,84.630478 186.638031,84.690849 185.396484,84.661552   C184.561340,80.700333 183.839310,76.841370 183.451813,72.949089   C183.344727,71.873398 184.233383,70.698578 184.665176,69.569244   C185.426758,70.258339 186.274384,70.877045 186.917419,71.663109   C187.298981,72.129547 187.201782,73.262970 187.585312,73.411621   C194.461960,76.077003 190.307953,80.076180 188.769379,84.155228  z"/>
<path fill="#508F9D" opacity="1.000000" stroke="none" d=" M110.567505,91.223618   C113.664101,91.681229 116.463089,92.280975 119.765762,93.275940   C120.053452,94.401443 119.837440,95.131721 119.438995,95.842285   C119.256561,95.822571 118.895889,95.756065 118.810852,95.633575   C118.424088,95.367783 118.167770,95.440590 117.637527,95.751373   C116.893631,95.808289 116.469055,95.843338 115.788239,95.722672   C111.409393,97.418892 107.286797,99.270821 103.164207,101.122749   C103.444145,99.720490 103.724083,98.318230 104.019127,96.555481   C106.112793,94.585243 108.191345,92.975502 110.567505,91.223618  z"/>
<path fill="#383435" opacity="1.000000" stroke="none" d=" M192.979065,36.574219   C191.539413,37.339657 190.142303,37.696491 188.373627,38.017372   C188.704041,30.725243 189.361282,23.464136 190.159302,16.218536   C190.270844,15.205779 191.073761,14.269164 191.124344,14.167360   C191.124344,19.661448 191.014618,25.906116 191.210602,32.141174   C191.253326,33.500286 192.389191,34.825039 192.979065,36.574219  z"/>
<path fill="#DAF6FF" opacity="1.000000" stroke="none" d=" M210.938950,118.898155   C210.752167,118.936409 210.473831,118.761955 210.197388,118.313782   C210.478470,118.191742 210.694519,118.406876 210.938950,118.898155  z"/>
<path fill="#D3ECF8" opacity="1.000000" stroke="none" d=" M101.317726,129.784424   C101.188362,122.433746 101.507736,115.160286 102.232941,107.355682   C105.821358,104.490814 109.003952,102.157082 112.165009,99.834396   C112.143478,99.845459 112.176353,99.838791 112.219360,100.059616   C112.408913,100.551353 112.619019,100.757423 112.987221,101.287659   C115.087456,107.209717 114.912926,113.697495 120.089966,118.223907   C118.183495,126.543373 116.336288,134.454758 114.489075,142.366135   C114.979660,142.483429 115.470245,142.600708 115.960831,142.718002   C118.307480,134.715210 120.654137,126.712402 123.399033,118.722473   C124.858536,118.726906 125.919800,118.718491 126.998047,119.184898   C126.354469,128.792053 125.693909,137.924377 125.033356,147.056732   C119.788765,147.042130 114.544167,147.027527 109.107864,146.717804   C109.540932,143.936478 110.602875,141.468994 110.709999,138.960709   C111.056519,130.846786 110.407722,129.363480 101.317726,129.784424  z"/>
<path fill="#D3ECF8" opacity="1.000000" stroke="none" d=" M167.872986,114.354782   C167.890762,124.917915 167.908539,135.481049 167.942902,146.511154   C167.959473,146.978134 167.545288,147.256668 166.884689,147.236023   C164.116531,147.208145 162.008972,147.200882 159.901413,147.193619   C159.901413,147.193619 159.888931,147.087692 159.820847,146.921234   C159.497040,146.836044 159.241318,146.917297 158.985596,146.998550   C158.985596,146.998550 158.510971,146.944366 158.122467,146.768585   C157.571930,146.278900 157.320679,146.074860 156.980209,145.980698   C156.980209,145.980698 156.948914,145.606018 156.668884,145.349640   C156.388840,145.093246 156.063599,144.838333 155.898590,144.602158   C155.466049,141.548752 155.198517,138.731506 155.112732,135.610565   C156.871002,131.892532 158.447540,128.478210 160.311417,124.879486   C163.023499,121.248299 165.448242,117.801537 167.872986,114.354782  z"/>
<path fill="#D3EDF9" opacity="1.000000" stroke="none" d=" M149.655807,147.213257   C145.068069,147.232040 140.480347,147.250824 135.470856,146.766434   C137.367966,137.152344 139.686859,128.041443 142.375580,118.863358   C143.492905,118.823769 144.240387,118.851349 144.971069,119.279999   C145.623779,122.026146 146.338150,124.359566 146.951584,126.719215   C147.742767,129.762497 149.530441,132.829391 146.597168,135.915237   C143.650070,137.049332 143.984543,138.366608 145.544098,140.354340   C147.176636,142.435120 148.306320,144.910400 149.655807,147.213257  z"/>
<path fill="#D3EDF9" opacity="1.000000" stroke="none" d=" M134.026855,147.043457   C131.956161,147.120728 129.885483,147.197998 127.369980,146.754089   C128.288666,137.058350 129.652176,127.883827 131.455048,118.734711   C133.952591,118.805878 136.010757,118.851631 138.085007,119.331650   C136.743011,128.858429 135.384933,137.950943 134.026855,147.043457  z"/>
<path fill="#A7A9AC" opacity="1.000000" stroke="none" d=" M146.940475,135.876495   C149.530441,132.829391 147.742767,129.762497 146.951584,126.719215   C146.338150,124.359566 145.623779,122.026146 145.206818,119.061752   C147.118896,118.887688 148.778427,119.332947 150.349640,120.126678   C150.480743,122.297272 150.668839,124.123833 150.926163,125.940582   C151.442932,129.589050 149.997177,134.036743 154.931000,135.914276   C155.198517,138.731506 155.466049,141.548752 155.584991,144.672913   C155.317657,145.347015 155.198914,145.714188 155.080170,146.081345   C154.645462,146.421768 154.210754,146.762192 153.454590,146.635681   C151.068909,142.737991 149.004700,139.307236 146.940475,135.876495  z"/>
<path fill="#A7A9AC" opacity="1.000000" stroke="none" d=" M131.015671,118.709305   C129.652176,127.883827 128.288666,137.058350 126.933769,146.660812   C126.512589,147.154572 126.082802,147.220383 125.343185,147.171448   C125.693909,137.924377 126.354469,128.792053 127.083099,118.834167   C128.439331,118.242172 129.727509,118.475739 131.015671,118.709305  z"/>
<path fill="#A7A9AC" opacity="1.000000" stroke="none" d=" M134.263153,147.117737   C135.384933,137.950943 136.743011,128.858429 138.341354,119.158043   C139.722992,118.676964 140.864365,118.803749 142.005737,118.930527   C139.686859,128.041443 137.367966,137.152344 135.010712,146.653900   C134.972351,147.044556 134.499435,147.192017 134.263153,147.117737  z"/>
<path fill="#3C4C59" opacity="1.000000" stroke="none" d=" M146.597168,135.915237   C149.004700,139.307236 151.068909,142.737991 153.150681,146.545166   C152.228775,146.976303 151.289322,147.031006 150.002838,147.149475   C148.306320,144.910400 147.176636,142.435120 145.544098,140.354340   C143.984543,138.366608 143.650070,137.049332 146.597168,135.915237  z"/>
<path fill="#3C4C59" opacity="1.000000" stroke="none" d=" M159.974167,147.569519   C162.008972,147.200882 164.116531,147.208145 166.657730,147.339813   C164.743225,147.624619 162.395065,147.785019 159.974167,147.569519  z"/>
<path fill="#3C4C59" opacity="1.000000" stroke="none" d=" M155.472382,145.944473   C155.198914,145.714188 155.317657,145.347015 155.750000,144.909088   C156.063599,144.838333 156.388840,145.093246 156.499725,145.267578   C156.361969,145.563782 156.113297,145.685684 155.472382,145.944473  z"/>
<path fill="#3C4C59" opacity="1.000000" stroke="none" d=" M157.016022,146.265320   C157.320679,146.074860 157.571930,146.278900 157.884628,146.790604   C157.707474,146.842255 157.379654,146.696091 157.016022,146.265320  z"/>
<path fill="#3C4C59" opacity="1.000000" stroke="none" d=" M159.177277,147.086426   C159.241318,146.917297 159.497040,146.836044 159.769928,146.937119   C159.787109,147.119446 159.368958,147.174316 159.177277,147.086426  z"/>
<path fill="#1D75B9" opacity="1.000000" stroke="none" d=" M155.112732,135.610565   C149.997177,134.036743 151.442932,129.589050 150.926163,125.940582   C150.668839,124.123833 150.480743,122.297272 150.656281,120.071083   C151.372345,118.184959 151.693420,116.702896 151.760895,115.112946   C151.323883,114.994278 151.140472,114.983490 150.857361,114.854500   C150.608566,114.577019 150.425262,114.505142 149.755661,114.344978   C143.643326,114.105087 137.983170,113.999657 132.322861,113.991943   C128.857773,113.987213 126.119629,112.913483 124.942101,109.227173   C126.123322,108.023094 127.120918,107.056091 128.441132,105.987152   C132.948044,103.147842 137.132385,100.410484 141.316727,97.673126   C146.868668,98.153931 152.420624,98.634720 158.651886,99.298965   C159.896072,99.661720 160.460953,99.841026 161.025833,100.020325   C161.025833,100.020325 161.014633,99.978065 161.165771,100.290154   C165.285812,103.060349 165.561111,106.371544 164.119293,110.531578   C162.474045,115.278587 161.365738,120.211685 160.024078,125.063911   C158.447540,128.478210 156.871002,131.892532 155.112732,135.610565  z"/>
<path fill="#F0A91E" opacity="1.000000" stroke="none" d=" M128.118530,106.089096   C127.120918,107.056091 126.123322,108.023094 124.583405,109.323212   C122.787514,108.205734 120.843674,106.926826 120.430855,105.267113   C119.680801,102.251518 119.841072,99.009514 119.621429,95.862000   C119.837440,95.131721 120.053452,94.401443 120.157417,93.301315   C121.717079,89.904922 123.388786,86.878387 125.136162,83.510452   C126.487366,79.990982 127.581413,76.723541 129.089874,73.660156   C130.574127,70.645943 132.478699,67.838699 134.558716,65.220154   C135.593475,71.764580 135.990189,78.077026 137.049622,84.276207   C137.665146,87.877892 140.797470,88.987045 144.681702,88.898872   C146.242188,88.950523 147.379395,88.997253 148.516586,89.043976   C148.849045,89.019722 149.181854,89.012642 149.744873,89.375885   C149.792084,90.865013 149.609436,92.001015 149.426773,93.137009   C149.426773,93.137009 149.254883,93.525757 149.219971,93.735031   C147.333679,94.161217 145.482300,94.378136 142.834961,94.799103   C137.379913,94.430229 132.087753,96.903915 128.373520,91.799118   C127.841362,94.234070 127.019104,96.321030 127.022919,98.406479   C127.027596,100.968010 127.722176,103.528282 128.118530,106.089096  z"/>
<path fill="#F37621" opacity="1.000000" stroke="none" d=" M128.441132,105.987152   C127.722176,103.528282 127.027596,100.968010 127.022919,98.406479   C127.019104,96.321030 127.841362,94.234070 128.373520,91.799118   C132.087753,96.903915 137.379913,94.430229 142.494186,94.999359   C142.468521,95.732574 141.987686,96.469589 141.411774,97.439865   C137.132385,100.410484 132.948044,103.147842 128.441132,105.987152  z"/>
<path fill="#1B354F" opacity="1.000000" stroke="none" d=" M160.311417,124.879486   C161.365738,120.211685 162.474045,115.278587 164.119293,110.531578   C165.561111,106.371544 165.285812,103.060349 161.144226,100.293869   C168.020660,99.570000 168.026611,99.570000 168.025085,106.891174   C168.024628,109.057350 167.980347,111.223511 167.914581,113.872231   C165.448242,117.801537 163.023499,121.248299 160.311417,124.879486  z"/>
<path fill="#1B354F" opacity="1.000000" stroke="none" d=" M160.841888,99.770096   C160.460953,99.841026 159.896072,99.661720 159.111572,99.278923   C159.480621,99.223572 160.069290,99.371719 160.841888,99.770096  z"/>
<path fill="#F27823" opacity="1.000000" stroke="none" d=" M144.258423,88.893951   C140.797470,88.987045 137.665146,87.877892 137.049622,84.276207   C135.990189,78.077026 135.593475,71.764580 134.879791,65.079315   C135.124557,64.439819 135.408157,64.220688 135.965363,63.956497   C137.333511,64.838043 138.428040,65.764648 139.844299,66.764008   C141.547531,70.341934 142.929016,73.847107 144.363037,78.136086   C144.363205,82.244576 144.310822,85.569260 144.258423,88.893951  z"/>
<path fill="#F9A282" opacity="1.000000" stroke="none" d=" M149.838745,93.089249   C149.609436,92.001015 149.792084,90.865013 149.994598,89.380142   C153.389572,89.258255 156.764709,89.485237 160.449722,89.887604   C159.201370,91.026237 157.750610,92.379707 156.055634,92.846664   C154.240540,93.346725 152.195450,93.011925 149.838745,93.089249  z"/>
<path fill="#34739E" opacity="1.000000" stroke="none" d=" M112.186539,99.823341   C109.003952,102.157082 105.821358,104.490814 102.322845,106.952850   C102.264511,105.315109 102.522102,103.549065 102.971947,101.452881   C107.286797,99.270821 111.409393,97.418892 115.864433,96.020248   C116.129295,97.327904 116.061714,98.182259 115.689407,98.921539   C114.318626,99.145424 113.252586,99.484383 112.186539,99.823341  z"/>
<path fill="#ECE0DA" opacity="1.000000" stroke="none" d=" M144.681717,88.898872   C144.310822,85.569260 144.363205,82.244576 144.518616,78.515625   C145.855774,78.411880 147.089935,78.712387 148.658875,79.002914   C148.712769,82.073105 148.431885,85.153275 148.333786,88.638718   C147.379395,88.997253 146.242188,88.950523 144.681717,88.898872  z"/>
<path fill="#4A4947" opacity="1.000000" stroke="none" d=" M115.994141,99.036621   C116.061714,98.182259 116.129295,97.327904 116.120682,96.175964   C116.469055,95.843338 116.893631,95.808289 117.871010,95.814819   C118.423813,95.856407 118.895889,95.756065 118.895889,95.756065   C118.895889,95.756065 119.256561,95.822571 119.438995,95.842285   C119.841072,99.009514 119.680801,102.251518 120.430855,105.267113   C120.843674,106.926826 122.787514,108.205734 124.399788,109.560287   C126.119629,112.913483 128.857773,113.987213 132.322861,113.991943   C137.983170,113.999657 143.643326,114.105087 149.541824,114.655128   C144.023178,115.412354 138.268158,115.851761 132.508911,115.917397   C122.869026,116.027267 120.285889,113.962181 117.727074,104.762115   C117.192894,102.841522 116.573990,100.944504 115.994141,99.036621  z"/>
<path fill="#34739E" opacity="1.000000" stroke="none" d=" M118.810852,95.633575   C118.895889,95.756065 118.423813,95.856407 118.190338,95.792953   C118.167770,95.440590 118.424088,95.367783 118.810852,95.633575  z"/>
<path fill="#292727" opacity="1.000000" stroke="none" d=" M115.689407,98.921539   C116.573990,100.944504 117.192894,102.841522 117.727074,104.762115   C120.285889,113.962181 122.869026,116.027267 132.508911,115.917397   C138.268158,115.851761 144.023178,115.412354 149.993927,114.830811   C150.425262,114.505142 150.608566,114.577019 150.931656,115.023346   C151.408600,115.280548 151.711548,115.250694 152.014496,115.220840   C151.693420,116.702896 151.372345,118.184959 150.744598,119.722610   C148.778427,119.332947 147.118896,118.887688 145.223618,118.660675   C144.240387,118.851349 143.492905,118.823769 142.375580,118.863358   C140.864365,118.803749 139.722992,118.676964 138.325272,118.723785   C136.010757,118.851631 133.952591,118.805878 131.455048,118.734711   C129.727509,118.475739 128.439331,118.242172 127.066116,118.359344   C125.919800,118.718491 124.858536,118.726906 123.211899,118.469650   C121.800758,118.074600 120.974991,117.945213 120.149231,117.815826   C114.912926,113.697495 115.087456,107.209717 112.999275,101.037849   C112.669975,100.212280 112.423164,100.025536 112.176353,99.838791   C112.176353,99.838791 112.143478,99.845459 112.165009,99.834396   C113.252586,99.484383 114.318626,99.145424 115.689407,98.921539  z"/>
<path fill="#A7A9AC" opacity="1.000000" stroke="none" d=" M120.089966,118.223907   C120.974991,117.945213 121.800758,118.074600 122.813652,118.456795   C120.654137,126.712402 118.307480,134.715210 115.960831,142.718002   C115.470245,142.600708 114.979660,142.483429 114.489075,142.366135   C116.336288,134.454758 118.183495,126.543373 120.089966,118.223907  z"/>
<path fill="#34739E" opacity="1.000000" stroke="none" d=" M112.219360,100.059616   C112.423164,100.025536 112.669975,100.212280 112.904739,100.648834   C112.619019,100.757423 112.408913,100.551353 112.219360,100.059616  z"/>
<path fill="#4A4947" opacity="1.000000" stroke="none" d=" M151.760895,115.112946   C151.711548,115.250694 151.408600,115.280548 151.031372,115.141556   C151.140472,114.983490 151.323883,114.994278 151.760895,115.112946  z"/>
</svg>