<svg xmlns="http://www.w3.org/2000/svg" xmlns:xlink="http://www.w3.org/1999/xlink" version="1.1" id="Layer_1" x="0px" y="0px" width="100%" viewBox="0 0 245 206" enable-background="new 0 0 245 206" xml:space="preserve">
<path fill="#FFFEFF" opacity="1.000000" stroke="none" d=" M1.000000,194.000000   C1.000000,129.711288 1.000000,65.422585 1.000000,1.066940   C82.565338,1.066940 164.130753,1.066940 246.000000,1.066940   C246.000000,65.020576 246.000000,129.041626 245.531342,193.532013   C194.065674,193.996918 143.068649,193.992462 92.040550,193.609512   C91.112335,192.358398 90.199211,191.501556 89.321640,190.609711   C87.822708,189.086380 86.346085,187.541092 84.861969,185.642517   C84.632584,183.612671 84.401306,181.945312 84.555779,180.188721   C85.436279,178.885696 86.494316,177.595764 86.342033,176.469498   C83.661110,156.641968 80.832474,136.834412 78.403381,116.928635   C78.897125,114.033051 79.073570,111.232552 79.139854,108.429443   C79.321785,100.736404 79.542755,93.042046 79.522736,85.348793   C79.519608,84.144577 78.646652,82.413033 77.648064,81.831146   C72.899292,79.063988 67.967941,76.610161 63.500427,74.011299   C65.178329,73.387688 66.457382,72.797585 68.037537,72.240196   C73.628387,71.726471 73.833221,71.360115 73.109070,63.832298   C72.998108,62.118450 73.135315,60.230907 72.260834,59.364540   C68.936935,56.071510 64.665794,55.517540 60.229225,56.366028   C55.872059,57.199329 54.798828,60.539368 54.284542,64.381500   C53.133472,72.980911 54.226345,74.806015 60.909874,75.373550   C58.344471,77.497078 55.763462,79.175552 53.393173,81.111961   C51.672878,82.517349 49.167110,84.073158 48.841068,85.890182   C46.936893,96.502136 45.572521,107.210938 43.749023,118.132797   C42.724770,120.899940 41.625736,123.389420 41.392693,125.957489   C41.290909,127.079132 42.962082,128.361649 43.828110,129.571121   C44.723087,128.445190 46.038898,127.446053 46.424351,126.166618   C47.197353,123.600784 47.461979,120.881798 48.094418,117.889008   C50.346600,112.521408 52.440807,107.490845 54.535019,102.460274   C54.880085,102.523460 55.225151,102.586647 55.570217,102.649834   C55.134235,105.775986 54.698257,108.902130 54.052277,112.332764   C52.195900,118.829185 49.260178,125.002586 49.170818,131.216904   C48.983204,144.264267 45.871826,156.025314 38.416878,166.676620   C38.228775,166.945374 38.059002,167.246201 37.963875,167.557495   C37.507786,169.049973 37.080372,170.551208 36.390862,172.240601   C34.713276,175.179947 33.287605,177.928009 31.548544,180.815491   C29.600687,182.683945 27.966221,184.413010 26.012932,185.953613   C22.728584,180.809433 19.763060,175.853699 16.507000,170.412430   C14.858208,172.487961 14.191592,173.327118 13.345786,174.391830   C13.009339,172.429245 12.745220,170.888565 12.497048,169.440903   C6.313462,168.744476 4.848089,170.183685 6.018373,175.823349   C7.723341,184.039688 11.048888,190.909821 20.551119,192.383682   C21.419516,192.518372 22.167625,193.428604 22.504843,193.985443   C15.025394,193.994797 8.012697,193.997391 1.000000,194.000000  M178.084259,71.843002   C179.163925,73.055695 180.243607,74.268387 181.423920,76.156013   C183.292831,81.750313 185.161743,87.344604 187.013107,93.856880   C187.010422,95.830711 187.010544,97.804550 187.004608,99.778374   C186.975739,109.372520 196.415039,119.067009 203.480637,120.528755   C209.062454,122.383331 214.591187,123.397293 219.621170,119.635841   C220.207565,123.003883 220.811905,126.474998 221.416245,129.946106   C221.972580,130.011795 222.528900,130.077469 223.085236,130.143158   C223.912308,128.393997 225.166595,126.715965 225.472290,124.879990   C226.011078,121.643967 225.970917,118.311554 226.886932,115.001495   C232.654663,112.615692 236.056091,106.840164 236.395599,99.178444   C238.631287,98.174667 240.866974,97.170883 243.096115,96.170036   C240.386215,85.626167 240.130157,85.855515 232.797852,77.669189   C229.423584,73.901909 226.315887,73.260437 221.728622,74.706688   C209.329803,69.463326 196.459000,73.486641 190.192612,84.010040   C188.409073,80.887947 186.625549,77.765862 184.523483,74.127251   C182.843124,72.695160 181.162750,71.263069 179.115524,69.076210   C178.534210,68.815887 177.953445,68.329369 177.371506,68.327980   C157.571671,68.280563 137.771667,68.264114 117.971924,68.320641   C117.085190,68.323166 116.200523,69.048569 115.314896,69.437271   C115.392944,70.010651 115.470993,70.584030 115.549034,71.157410   C136.346024,71.157410 157.143021,71.157410 178.084259,71.843002  M171.307724,87.999001   C154.810379,87.999191 138.312759,88.052589 121.815910,87.962120   C117.696960,87.939545 115.772179,89.258522 115.916313,93.771996   C116.198074,102.594917 116.051758,111.433662 115.970497,120.264824   C115.943428,123.206139 116.626167,125.040741 120.089600,125.027390   C138.086441,124.957985 156.083664,124.991905 174.080765,124.997940   C177.548370,124.999107 179.149109,123.553711 179.061066,119.830841   C178.864136,111.503510 179.005035,103.168304 178.998306,94.836319   C178.993073,88.361824 178.841095,88.214691 171.307724,87.999001  M177.831100,60.190674   C157.061493,60.190674 136.291885,60.190674 115.522285,60.190674   C115.436752,60.741402 115.351219,61.292126 115.265694,61.842854   C116.512146,62.224232 117.757393,62.933277 119.005234,62.937881   C137.959732,63.007812 156.914780,63.016510 175.868652,62.887306   C176.756790,62.881248 177.635223,61.454029 177.831100,60.190674  M149.500000,23.001781   C129.403259,23.001781 109.306511,23.001781 89.209770,23.001781   C89.212395,23.224180 89.215019,23.446577 89.217644,23.668976   C140.740051,23.668976 192.262482,23.668976 243.784897,23.668976   C243.784836,23.446579 243.784790,23.224182 243.784744,23.001785   C212.689819,23.001785 181.594910,23.001785 149.500000,23.001781  M141.500473,51.003609   C138.181335,51.003609 134.860016,50.928905 131.543671,51.025261   C128.418320,51.116066 125.298187,51.387058 122.175758,51.578781   C122.236748,52.183136 122.297729,52.787487 122.358711,53.391838   C139.074753,53.391838 155.790802,53.391838 172.506851,53.391838   C172.538864,52.636074 172.570862,51.880314 172.602875,51.124550   C162.581055,50.875183 152.533325,51.062782 141.500473,51.003609  M158.023224,15.910276   C166.256516,15.910276 174.489807,15.910276 182.723099,15.910276   C182.718124,15.709645 182.713135,15.509014 182.708145,15.308383   C174.251724,15.308383 165.795288,15.308383 158.023224,15.910276  z"/>
<path fill="#FEFEFE" opacity="1.000000" stroke="none" d=" M246.000000,195.000000   C246.000000,198.993179 246.000000,202.986343 246.000000,206.974640   C164.333328,206.969772 82.666656,206.969772 1.000000,206.969772   C1.000000,203.279144 1.000000,199.618759 1.468623,195.485611   C10.414855,195.014374 18.893059,195.067673 27.369534,194.970291   C28.920107,194.952499 30.463629,194.321243 32.024651,193.664551   C32.053406,193.150284 32.067909,192.944626 32.467484,192.842621   C34.835007,193.077499 36.817459,193.208725 38.937523,193.442963   C39.379345,193.696503 39.683556,193.847000 40.277588,194.301392   C53.559841,194.629517 66.552277,194.653748 79.688004,194.597656   C79.831306,194.517319 80.160065,194.516129 80.160065,194.516129   C80.160065,194.516129 80.449577,194.671844 80.933441,194.728546   C81.742073,194.784637 82.066856,194.784027 82.807510,194.739471   C85.989449,194.685699 88.755508,194.675858 92.010986,194.767456   C93.827461,194.918243 95.154533,195.010651 96.481606,195.010696   C146.321075,195.012436 196.160538,195.005630 246.000000,195.000000  z"/>
<path fill="#E4E4E4" opacity="1.000000" stroke="none" d=" M246.000000,194.750000   C196.160538,195.005630 146.321075,195.012436 96.481606,195.010696   C95.154533,195.010651 93.827461,194.918243 92.100327,194.558899   C91.700264,194.248871 92.071640,193.988022 92.071640,193.988022   C143.068649,193.992462 194.065674,193.996918 245.531342,194.000671   C246.000000,194.000000 246.000000,194.500000 246.000000,194.750000  z"/>
<path fill="#E4E4E4" opacity="1.000000" stroke="none" d=" M32.010406,193.973175   C30.463629,194.321243 28.920107,194.952499 27.369534,194.970291   C18.893059,195.067673 10.414855,195.014374 1.468623,195.006439   C1.000000,195.000000 1.000000,194.500000 1.000000,194.250000   C8.012697,193.997391 15.025394,193.994797 22.844734,193.992340   C24.103804,193.990646 24.556234,193.988785 25.445503,193.994263   C27.925028,193.992142 29.967716,193.982651 32.010406,193.973175  z"/>
<path fill="#F3ECFF" opacity="1.000000" stroke="none" d=" M171.779053,87.999039   C178.841095,88.214691 178.993073,88.361824 178.998306,94.836319   C179.005035,103.168304 178.864136,111.503510 179.061066,119.830841   C179.149109,123.553711 177.548370,124.999107 174.080765,124.997940   C156.083664,124.991905 138.086441,124.957985 120.089600,125.027390   C116.626167,125.040741 115.943428,123.206139 115.970497,120.264824   C116.051758,111.433662 116.198074,102.594917 115.916313,93.771996   C115.772179,89.258522 117.696960,87.939545 121.815910,87.962120   C138.312759,88.052589 154.810379,87.999191 171.779053,87.999039  z"/>
<path fill="#303042" opacity="1.000000" stroke="none" d=" M36.642773,172.049332   C37.080372,170.551208 37.507786,169.049973 37.963875,167.557495   C38.059002,167.246201 38.228775,166.945374 38.416878,166.676620   C45.871826,156.025314 48.983204,144.264267 49.170818,131.216904   C49.260178,125.002586 52.195900,118.829185 54.456234,112.342842   C59.445110,112.169205 63.931175,112.961845 68.170097,112.260582   C75.362694,111.070663 75.297188,110.674698 78.035843,117.022530   C80.832474,136.834412 83.661110,156.641968 86.342033,176.469498   C86.494316,177.595764 85.436279,178.885696 84.112228,180.114914   C81.821632,180.305206 80.360344,180.480042 78.505753,180.509094   C76.169556,179.931213 74.245796,179.349579 72.279800,179.097977   C68.139397,178.568100 66.095703,176.804810 66.911263,172.218689   C67.782944,167.316986 68.531067,162.324921 68.587051,157.363861   C68.657074,151.158768 67.966423,144.945084 67.604141,138.735092   C62.918751,150.772141 59.313457,162.662582 56.071850,174.651367   C55.030952,178.501022 53.652210,179.686127 49.913330,177.722839   C47.163994,176.279160 44.147854,175.343597 41.068542,173.916382   C39.471905,173.117203 38.057339,172.583267 36.642773,172.049332  z"/>
<path fill="#403F58" opacity="1.000000" stroke="none" d=" M78.403389,116.928635   C75.297188,110.674698 75.362694,111.070663 68.170097,112.260582   C63.931175,112.961845 59.445110,112.169205 54.666237,112.038361   C54.698257,108.902130 55.134235,105.775986 55.570217,102.649834   C55.225151,102.586647 54.880085,102.523460 54.535019,102.460274   C52.440807,107.490845 50.346600,112.521408 47.706024,117.875336   C46.115070,118.094803 45.070488,117.990921 44.025902,117.887039   C45.572521,107.210938 46.936893,96.502136 48.841068,85.890182   C49.167110,84.073158 51.672878,82.517349 53.393173,81.111961   C55.763462,79.175552 58.344471,77.497078 61.078968,75.108490   C61.915672,74.354187 62.508625,74.199493 63.101582,74.044800   C67.967941,76.610161 72.899292,79.063988 77.648064,81.831146   C78.646652,82.413033 79.519608,84.144577 79.522736,85.348793   C79.542755,93.042046 79.321785,100.736404 79.139854,108.429443   C79.073570,111.232552 78.897125,114.033051 78.403389,116.928635  z"/>
<path fill="#452B83" opacity="1.000000" stroke="none" d=" M226.173157,115.019493   C225.970917,118.311554 226.011078,121.643967 225.472290,124.879990   C225.166595,126.715965 223.912308,128.393997 223.085236,130.143158   C222.528900,130.077469 221.972580,130.011795 221.416245,129.946106   C220.811905,126.474998 220.207565,123.003883 219.621170,119.635841   C214.591187,123.397293 209.062454,122.383331 203.199951,119.869942   C201.653519,113.538506 200.414124,107.859657 199.079559,102.203262   C198.951569,101.660767 198.287582,101.181435 197.776138,100.802887   C194.208527,98.162354 190.615524,95.556122 187.030655,92.938904   C185.161743,87.344604 183.292831,81.750313 181.729279,75.729095   C182.970428,75.082703 183.906219,74.863235 184.842010,74.643768   C186.625549,77.765862 188.409073,80.887947 190.552704,84.524933   C191.988571,85.987732 192.939407,87.157509 194.161423,87.845764   C199.972687,91.118774 205.842010,94.331955 212.932831,92.365646   C212.992737,93.132584 213.033722,93.569939 213.033783,94.300415   C213.300095,94.809998 213.607346,95.026459 213.984711,95.573257   C218.094269,102.275558 222.133713,108.647522 226.173157,115.019493  z"/>
<path fill="#303043" opacity="1.000000" stroke="none" d=" M222.138657,75.374031   C226.315887,73.260437 229.423584,73.901909 232.797852,77.669189   C240.130157,85.855515 240.386215,85.626167 243.096115,96.170036   C240.866974,97.170883 238.631287,98.174667 235.763077,99.470383   C231.037369,99.860588 230.919861,96.745171 229.876785,93.895409   C228.582352,90.358887 226.856400,86.761955 224.453613,83.921295   C222.658661,81.799232 220.359268,82.212975 218.997650,85.633308   C218.140228,87.787148 215.713135,89.316116 213.623932,91.088593   C211.794739,90.376724 210.331802,89.701668 208.933380,88.666824   C209.553864,86.632980 210.109833,84.958931 210.835892,82.772758   C208.996780,81.822166 207.060196,80.821198 204.945648,79.506844   C204.694870,78.366524 204.505600,76.824722 204.565842,76.814926   C208.040573,76.249031 211.887268,74.709351 214.927185,75.679344   C217.769730,76.586372 219.764053,77.659714 222.138657,75.374031  z"/>
<path fill="#F0E8FC" opacity="1.000000" stroke="none" d=" M213.990173,91.125397   C215.713135,89.316116 218.140228,87.787148 218.997650,85.633308   C220.359268,82.212975 222.658661,81.799232 224.453613,83.921295   C226.856400,86.761955 228.582352,90.358887 229.876785,93.895409   C230.919861,96.745171 231.037369,99.860588 235.506165,99.745407   C236.056091,106.840164 232.654663,112.615692 226.530045,115.010498   C222.133713,108.647522 218.094269,102.275558 213.926880,95.318665   C213.557526,94.491585 213.316132,94.249435 213.074722,94.007294   C213.033722,93.569939 212.992737,93.132584 213.155792,92.270615   C213.645004,91.671440 213.855103,91.431236 213.990173,91.125397  z"/>
<path fill="#F2F2F2" opacity="1.000000" stroke="none" d=" M25.008663,193.986923   C24.556234,193.988785 24.103804,193.990646 23.311485,193.985596   C22.167625,193.428604 21.419516,192.518372 20.551119,192.383682   C11.048888,190.909821 7.723341,184.039688 6.018373,175.823349   C4.848089,170.183685 6.313462,168.744476 12.497048,169.440903   C12.745220,170.888565 13.009339,172.429245 13.345786,174.391830   C14.191592,173.327118 14.858208,172.487961 16.507000,170.412430   C19.763060,175.853699 22.728584,180.809433 25.920517,186.273834   C26.023598,187.207794 25.900269,187.633102 25.480360,188.120209   C25.125408,190.116974 25.067036,192.051956 25.008663,193.986923  z"/>
<path fill="#333344" opacity="1.000000" stroke="none" d=" M63.500427,74.011292   C62.508625,74.199493 61.915672,74.354187 61.153625,74.773926   C54.226345,74.806015 53.133472,72.980911 54.284542,64.381500   C54.798828,60.539368 55.872059,57.199329 60.229225,56.366028   C64.665794,55.517540 68.936935,56.071510 72.260834,59.364540   C73.135315,60.230907 72.998108,62.118450 72.764099,63.899284   C69.600372,64.813583 66.998039,65.365654 63.707550,66.063705   C64.975822,67.997734 66.356133,70.102608 67.736443,72.207481   C66.457382,72.797585 65.178329,73.387688 63.500427,74.011292  z"/>
<path fill="#EEE5F8" opacity="1.000000" stroke="none" d=" M213.623932,91.088593   C213.855103,91.431236 213.645004,91.671440 213.136887,91.941040   C205.842010,94.331955 199.972687,91.118774 194.161423,87.845764   C192.939407,87.157509 191.988571,85.987732 190.880280,84.699814   C196.459000,73.486641 209.329803,69.463326 221.933640,75.040359   C219.764053,77.659714 217.769730,76.586372 214.927185,75.679344   C211.887268,74.709351 208.040573,76.249031 204.565842,76.814926   C204.505600,76.824722 204.694870,78.366524 204.801544,79.871101   C203.094864,84.842445 203.999359,87.877739 208.868866,89.026611   C210.331802,89.701668 211.794739,90.376724 213.623932,91.088593  z"/>
<path fill="#F1E9FD" opacity="1.000000" stroke="none" d=" M187.021881,93.397888   C190.615524,95.556122 194.208527,98.162354 197.776138,100.802887   C198.287582,101.181435 198.951569,101.660767 199.079559,102.203262   C200.414124,107.859657 201.653519,113.538506 202.909821,119.611221   C196.415039,119.067009 186.975739,109.372520 187.004608,99.778374   C187.010544,97.804550 187.010422,95.830711 187.021881,93.397888  z"/>
<path fill="#EEE5FE" opacity="1.000000" stroke="none" d=" M178.174652,60.439674   C177.635223,61.454029 176.756790,62.881248 175.868652,62.887306   C156.914780,63.016510 137.959732,63.007812 119.005234,62.937881   C117.757393,62.933277 116.512146,62.224232 115.265694,61.842854   C115.351219,61.292126 115.436752,60.741402 115.522285,60.190674   C136.291885,60.190674 157.061493,60.190674 178.174652,60.439674  z"/>
<path fill="#50348B" opacity="1.000000" stroke="none" d=" M177.940018,71.157410   C157.143021,71.157410 136.346024,71.157410 115.549034,71.157410   C115.470993,70.584030 115.392944,70.010651 115.314896,69.437271   C116.200523,69.048569 117.085190,68.323166 117.971924,68.320641   C137.771667,68.264114 157.571671,68.280563 177.371506,68.327980   C177.953445,68.329369 178.534210,68.815887 179.035629,69.668556   C178.617172,70.559738 178.278595,70.858574 177.940018,71.157410  z"/>
<path fill="#E4E4E4" opacity="1.000000" stroke="none" d=" M150.000000,23.001783   C181.594910,23.001785 212.689819,23.001785 243.784744,23.001785   C243.784790,23.224182 243.784836,23.446579 243.784897,23.668976   C192.262482,23.668976 140.740051,23.668976 89.217644,23.668976   C89.215019,23.446577 89.212395,23.224180 89.209770,23.001781   C109.306511,23.001781 129.403259,23.001781 150.000000,23.001783  z"/>
<path fill="#EDE2FE" opacity="1.000000" stroke="none" d=" M142.000351,51.003616   C152.533325,51.062782 162.581055,50.875183 172.602875,51.124550   C172.570862,51.880314 172.538864,52.636074 172.506851,53.391838   C155.790802,53.391838 139.074753,53.391838 122.358711,53.391838   C122.297729,52.787487 122.236748,52.183136 122.175758,51.578781   C125.298187,51.387058 128.418320,51.116066 131.543671,51.025261   C134.860016,50.928905 138.181335,51.003609 142.000351,51.003616  z"/>
<path fill="#343446" opacity="1.000000" stroke="none" d=" M25.776939,188.058395   C25.900269,187.633102 26.023598,187.207794 26.239340,186.462280   C27.966221,184.413010 29.600687,182.683945 31.840630,181.006332   C33.606491,182.040192 34.766880,183.022598 35.788040,184.418945   C36.699177,187.668564 37.749546,190.504242 38.799915,193.339935   C36.817459,193.208725 34.835007,193.077499 32.275425,192.564575   C29.724512,190.808044 27.750727,189.433228 25.776939,188.058395  z"/>
<path fill="#3B3B4D" opacity="1.000000" stroke="none" d=" M92.040550,193.609512   C92.071640,193.988022 91.700264,194.248871 91.610916,194.457443   C88.755508,194.675858 85.989449,194.685699 82.712669,194.421570   C81.942101,193.799393 81.682236,193.451202 81.422363,193.103012   C81.098091,193.625946 80.773827,194.148895 80.449570,194.671844   C80.449577,194.671844 80.160065,194.516129 80.160065,194.516129   C80.160065,194.516129 79.831306,194.517319 79.543854,194.334656   C78.835587,193.768524 78.414764,193.385056 77.961433,192.589157   C78.273621,189.986526 78.618324,187.796326 79.288071,185.788391   C81.362106,185.982117 83.111092,185.993561 84.860085,186.005020   C86.346085,187.541092 87.822708,189.086380 89.321640,190.609711   C90.199211,191.501556 91.112335,192.358398 92.040550,193.609512  z"/>
<path fill="#E4A7A8" opacity="1.000000" stroke="none" d=" M68.037537,72.240196   C66.356133,70.102608 64.975822,67.997734 63.707550,66.063705   C66.998039,65.365654 69.600372,64.813583 72.547684,64.194534   C73.833221,71.360115 73.628387,71.726471 68.037537,72.240196  z"/>
<path fill="#F6B5B5" opacity="1.000000" stroke="none" d=" M35.927269,184.005020   C34.766880,183.022598 33.606491,182.040192 32.154018,180.866913   C33.287605,177.928009 34.713276,175.179947 36.390862,172.240601   C38.057339,172.583267 39.471905,173.117203 40.939724,174.306671   C39.304409,177.976486 37.615841,180.990753 35.927269,184.005020  z"/>
<path fill="#F8B8B8" opacity="1.000000" stroke="none" d=" M43.749023,118.132797   C45.070488,117.990921 46.115070,118.094803 47.548050,118.212357   C47.461979,120.881798 47.197353,123.600784 46.424351,126.166618   C46.038898,127.446053 44.723087,128.445190 43.828110,129.571121   C42.962082,128.361649 41.290909,127.079132 41.392693,125.957489   C41.625736,123.389420 42.724770,120.899940 43.749023,118.132797  z"/>
<path fill="#E3AEB1" opacity="1.000000" stroke="none" d=" M84.861969,185.642517   C83.111092,185.993561 81.362106,185.982117 79.341583,185.373108   C79.013054,183.401993 78.956055,182.028442 78.899055,180.654877   C80.360344,180.480042 81.821632,180.305206 83.726471,180.204163   C84.401306,181.945312 84.632584,183.612671 84.861969,185.642517  z"/>
<path fill="#2C2B49" opacity="1.000000" stroke="none" d=" M157.681030,15.609329   C165.795288,15.308383 174.251724,15.308383 182.708145,15.308383   C182.713135,15.509014 182.718124,15.709645 182.723099,15.910276   C174.489807,15.910276 166.256516,15.910276 157.681030,15.609329  z"/>
<path fill="#F6B5B5" opacity="1.000000" stroke="none" d=" M178.012146,71.500214   C178.278595,70.858574 178.617172,70.559738 179.219055,70.045944   C181.162750,71.263069 182.843124,72.695160 184.682739,74.385513   C183.906219,74.863235 182.970428,75.082703 181.678955,75.391632   C180.243607,74.268387 179.163925,73.055695 178.012146,71.500214  z"/>
<path fill="#FBFBFB" opacity="1.000000" stroke="none" d=" M78.505753,180.509094   C78.956055,182.028442 79.013054,183.401993 79.016541,185.190842   C78.618324,187.796326 78.273621,189.986526 77.575539,192.751053   C75.605537,193.557755 73.989861,193.983521 72.372169,193.991287   C61.577610,194.043182 50.782616,194.005844 39.987762,193.997498   C39.683556,193.847000 39.379345,193.696503 38.937523,193.442963   C37.749546,190.504242 36.699177,187.668564 35.788040,184.418945   C37.615841,180.990753 39.304409,177.976486 41.121796,174.571915   C44.147854,175.343597 47.163994,176.279160 49.913330,177.722839   C53.652210,179.686127 55.030952,178.501022 56.071850,174.651367   C59.313457,162.662582 62.918751,150.772141 67.604141,138.735092   C67.966423,144.945084 68.657074,151.158768 68.587051,157.363861   C68.531067,162.324921 67.782944,167.316986 66.911263,172.218689   C66.095703,176.804810 68.139397,178.568100 72.279800,179.097977   C74.245796,179.349579 76.169556,179.931213 78.505753,180.509094  z"/>
<path fill="#DDDDDE" opacity="1.000000" stroke="none" d=" M40.277584,194.301392   C50.782616,194.005844 61.577610,194.043182 72.372169,193.991287   C73.989861,193.983521 75.605537,193.557755 77.608047,193.163483   C78.414764,193.385056 78.835587,193.768524 79.400558,194.414993   C66.552277,194.653748 53.559841,194.629517 40.277584,194.301392  z"/>
<path fill="#FBFBFB" opacity="1.000000" stroke="none" d=" M25.480358,188.120209   C27.750727,189.433228 29.724512,190.808044 31.890358,192.460907   C32.067909,192.944626 32.053406,193.150284 32.024651,193.664551   C29.967716,193.982651 27.925028,193.992142 25.445503,193.994263   C25.067036,192.051956 25.125408,190.116974 25.480358,188.120209  z"/>
<path fill="#DDDDDE" opacity="1.000000" stroke="none" d=" M80.933426,194.728546   C80.773827,194.148895 81.098091,193.625946 81.422363,193.103012   C81.682236,193.451202 81.942101,193.799393 82.296799,194.465500   C82.066856,194.784027 81.742073,194.784637 80.933426,194.728546  z"/>
<path fill="#EEE5F8" opacity="1.000000" stroke="none" d=" M213.033783,94.300415   C213.316132,94.249435 213.557526,94.491585 213.856766,94.988327   C213.607346,95.026459 213.300095,94.809998 213.033783,94.300415  z"/>
<path fill="#F6B5B5" opacity="1.000000" stroke="none" d=" M208.933380,88.666824   C203.999359,87.877739 203.094864,84.842445 204.979492,80.184486   C207.060196,80.821198 208.996780,81.822166 210.835892,82.772758   C210.109833,84.958931 209.553864,86.632980 208.933380,88.666824  z"/>
</svg>